<svg width="24" height="24" viewBox="0 0 24 24" fill="none" xmlns="http://www.w3.org/2000/svg">
<path fill-rule="evenodd" clip-rule="evenodd" d="M16.3257 14.8992L21.7057 20.2792C21.8948 20.4685 22.001 20.7251 22.0009 20.9926C22.0008 21.2601 21.8945 21.5166 21.7052 21.7057C21.516 21.8948 21.2594 22.001 20.9919 22.0009C20.7244 22.0008 20.4678 21.8945 20.2787 21.7052L14.8987 16.3252C13.2905 17.5709 11.268 18.1571 9.24287 17.9646C7.21772 17.7721 5.34198 16.8153 3.99723 15.2888C2.65248 13.7624 1.93973 11.781 2.004 9.74778C2.06826 7.71451 2.9047 5.78209 4.34315 4.34364C5.7816 2.90518 7.71402 2.06875 9.74729 2.00448C11.7806 1.94022 13.7619 2.65296 15.2884 3.99771C16.8148 5.34246 17.7716 7.21821 17.9641 9.24336C18.1566 11.2685 17.5704 13.2909 16.3247 14.8992M10.0007 16.0002C11.592 16.0002 13.1182 15.3681 14.2434 14.2429C15.3686 13.1177 16.0007 11.5915 16.0007 10.0002C16.0007 8.40893 15.3686 6.88281 14.2434 5.75759C13.1182 4.63237 11.592 4.00023 10.0007 4.00023C8.40944 4.00023 6.88332 4.63237 5.7581 5.75759C4.63289 6.88281 4.00074 8.40893 4.00074 10.0002C4.00074 11.5915 4.63289 13.1177 5.7581 14.2429C6.88332 15.3681 8.40944 16.0002 10.0007 16.0002Z" fill="#273572"/>
</svg>
