<svg width="48" height="48" viewBox="0 0 48 48" fill="none" xmlns="http://www.w3.org/2000/svg">
<circle cx="23.9919" cy="23.9919" r="23.9919" fill="#B8C034"/>
<path d="M25.2857 11.4272C26.692 11.431 27.4057 11.4385 28.022 11.456L28.2645 11.4647C28.5445 11.4747 28.8207 11.4872 29.1545 11.5022C30.4845 11.5647 31.392 11.7747 32.1882 12.0835C33.0132 12.401 33.7082 12.831 34.4032 13.5247C35.0391 14.1494 35.5309 14.9053 35.8445 15.7397C36.1532 16.536 36.3632 17.4435 36.4257 18.7747C36.4407 19.1072 36.4532 19.3835 36.4632 19.6647L36.4707 19.9072C36.4895 20.5222 36.497 21.236 36.4995 22.6422L36.5007 23.5747V25.2122C36.5038 26.124 36.4942 27.0358 36.472 27.9472L36.4645 28.1897C36.4545 28.471 36.442 28.7472 36.427 29.0797C36.3645 30.411 36.152 31.3172 35.8445 32.1147C35.5309 32.9492 35.0391 33.7051 34.4032 34.3297C33.7785 34.9656 33.0226 35.4575 32.1882 35.771C31.392 36.0797 30.4845 36.2897 29.1545 36.3522L28.2645 36.3897L28.022 36.3972C27.4057 36.4147 26.692 36.4235 25.2857 36.426L24.3532 36.4272H22.717C21.8048 36.4305 20.8926 36.4209 19.9807 36.3985L19.7382 36.391C19.4415 36.3798 19.1448 36.3668 18.8482 36.3522C17.5182 36.2897 16.6107 36.0797 15.8132 35.771C14.9792 35.4573 14.2238 34.9655 13.5995 34.3297C12.9631 33.7052 12.4708 32.9493 12.157 32.1147C11.8482 31.3185 11.6382 30.411 11.5757 29.0797L11.5382 28.1897L11.532 27.9472C11.5089 27.0358 11.4985 26.124 11.5007 25.2122V22.6422C11.4973 21.7305 11.5064 20.8187 11.5282 19.9072L11.537 19.6647C11.547 19.3835 11.5595 19.1072 11.5745 18.7747C11.637 17.4435 11.847 16.5372 12.1557 15.7397C12.4703 14.905 12.9635 14.149 13.6007 13.5247C14.2247 12.8892 14.9797 12.3973 15.8132 12.0835C16.6107 11.7747 17.517 11.5647 18.8482 11.5022C19.1807 11.4872 19.4582 11.4747 19.7382 11.4647L19.9807 11.4572C20.8922 11.435 21.804 11.4255 22.7157 11.4285L25.2857 11.4272ZM24.0007 17.6772C22.3431 17.6772 20.7534 18.3357 19.5813 19.5078C18.4092 20.6799 17.7507 22.2696 17.7507 23.9272C17.7507 25.5848 18.4092 27.1746 19.5813 28.3467C20.7534 29.5188 22.3431 30.1772 24.0007 30.1772C25.6583 30.1772 27.248 29.5188 28.4201 28.3467C29.5922 27.1746 30.2507 25.5848 30.2507 23.9272C30.2507 22.2696 29.5922 20.6799 28.4201 19.5078C27.248 18.3357 25.6583 17.6772 24.0007 17.6772ZM24.0007 20.1772C24.4932 20.1772 24.9808 20.2741 25.4358 20.4625C25.8908 20.6508 26.3043 20.927 26.6525 21.2752C27.0008 21.6233 27.2771 22.0367 27.4656 22.4916C27.6542 22.9465 27.7513 23.4342 27.7513 23.9266C27.7514 24.4191 27.6545 24.9067 27.4661 25.3617C27.2777 25.8167 27.0016 26.2302 26.6534 26.5785C26.3053 26.9267 25.8919 27.203 25.437 27.3916C24.982 27.5801 24.4944 27.6772 24.002 27.6772C23.0074 27.6772 22.0536 27.2822 21.3503 26.5789C20.647 25.8756 20.252 24.9218 20.252 23.9272C20.252 22.9327 20.647 21.9789 21.3503 21.2756C22.0536 20.5723 23.0074 20.1772 24.002 20.1772M30.5645 15.8022C30.1501 15.8022 29.7526 15.9669 29.4596 16.2599C29.1666 16.5529 29.002 16.9503 29.002 17.3647C29.002 17.7791 29.1666 18.1766 29.4596 18.4696C29.7526 18.7626 30.1501 18.9272 30.5645 18.9272C30.9789 18.9272 31.3763 18.7626 31.6693 18.4696C31.9623 18.1766 32.127 17.7791 32.127 17.3647C32.127 16.9503 31.9623 16.5529 31.6693 16.2599C31.3763 15.9669 30.9789 15.8022 30.5645 15.8022Z" fill="#273572"/>
</svg>
