<svg width="48" height="48" viewBox="0 0 48 48" fill="none" xmlns="http://www.w3.org/2000/svg">
<circle cx="23.9919" cy="23.9919" r="23.9919" fill="#B8C034"/>
<g clip-path="url(#clip0_8499_1151)">
<path d="M32.6253 12.2036C33.2858 12.2036 33.9193 12.466 34.3863 12.9331C34.8534 13.4001 35.1158 14.0336 35.1158 14.6941V32.1277C35.1158 32.7882 34.8534 33.4217 34.3863 33.8888C33.9193 34.3558 33.2858 34.6182 32.6253 34.6182H15.1917C14.5312 34.6182 13.8977 34.3558 13.4306 33.8888C12.9636 33.4217 12.7012 32.7882 12.7012 32.1277V14.6941C12.7012 14.0336 12.9636 13.4001 13.4306 12.9331C13.8977 12.466 14.5312 12.2036 15.1917 12.2036H32.6253ZM32.0026 31.5051V24.9052C32.0026 23.8286 31.5749 22.796 30.8136 22.0347C30.0523 21.2734 29.0198 20.8457 27.9431 20.8457C26.8846 20.8457 25.6518 21.4932 25.0541 22.4645V21.0823H21.5798V31.5051H25.0541V25.366C25.0541 24.4071 25.8262 23.6226 26.785 23.6226C27.2474 23.6226 27.6908 23.8063 28.0178 24.1332C28.3447 24.4602 28.5284 24.9036 28.5284 25.366V31.5051H32.0026ZM17.5328 19.1272C18.0876 19.1272 18.6197 18.9068 19.0121 18.5145C19.4044 18.1222 19.6248 17.59 19.6248 17.0352C19.6248 15.8771 18.6909 14.9307 17.5328 14.9307C16.9746 14.9307 16.4393 15.1524 16.0447 15.5471C15.65 15.9418 15.4283 16.4771 15.4283 17.0352C15.4283 18.1933 16.3747 19.1272 17.5328 19.1272ZM19.2637 31.5051V21.0823H15.8143V31.5051H19.2637Z" fill="#273572"/>
</g>
<defs>
<clipPath id="clip0_8499_1151">
<rect width="29.8861" height="29.8861" fill="white" transform="translate(5.64453 8.46777)"/>
</clipPath>
</defs>
</svg>
