<svg width="24" height="24" viewBox="0 0 24 24" fill="none" xmlns="http://www.w3.org/2000/svg">
<circle cx="11.9545" cy="11.9545" r="11.9545" fill="#B8C034"/>
<path d="M11.9557 11.5555C11.4273 11.5555 10.9205 11.3456 10.5469 10.972C10.1732 10.5983 9.96329 10.0915 9.96329 9.56312C9.96329 9.0347 10.1732 8.52793 10.5469 8.15428C10.9205 7.78063 11.4273 7.57071 11.9557 7.57071C12.4841 7.57071 12.9909 7.78063 13.3645 8.15428C13.7382 8.52793 13.9481 9.0347 13.9481 9.56312C13.9481 9.82477 13.8966 10.0839 13.7964 10.3256C13.6963 10.5673 13.5496 10.787 13.3645 10.972C13.1795 11.157 12.9599 11.3037 12.7182 11.4039C12.4764 11.504 12.2173 11.5555 11.9557 11.5555ZM11.9557 3.98438C10.4761 3.98438 9.05715 4.57213 8.01093 5.61835C6.96471 6.66457 6.37695 8.08355 6.37695 9.56312C6.37695 13.7472 11.9557 19.9237 11.9557 19.9237C11.9557 19.9237 17.5344 13.7472 17.5344 9.56312C17.5344 8.08355 16.9467 6.66457 15.9005 5.61835C14.8543 4.57213 13.4353 3.98438 11.9557 3.98438Z" fill="#273572"/>
</svg>
