<svg width="22" height="14" viewBox="0 0 22 14" fill="none" xmlns="http://www.w3.org/2000/svg">
<path d="M17.1111 5.25V1.16667C17.1111 0.857247 16.9823 0.560501 16.7531 0.341709C16.5239 0.122917 16.213 0 15.8889 0H1.22222C0.898069 0 0.587192 0.122917 0.357981 0.341709C0.128769 0.560501 0 0.857247 0 1.16667V12.8333C0 13.1428 0.128769 13.4395 0.357981 13.6583C0.587192 13.8771 0.898069 14 1.22222 14H15.8889C16.213 14 16.5239 13.8771 16.7531 13.6583C16.9823 13.4395 17.1111 13.1428 17.1111 12.8333V8.75L22 13.4167V0.583333L17.1111 5.25Z" fill="#85C062"/>
</svg>
