<svg width="20" height="18" viewBox="0 0 20 18" fill="none" xmlns="http://www.w3.org/2000/svg">
<path d="M13 1.00268e-07C13.5046 -0.000159579 13.9906 0.190406 14.3605 0.533497C14.7305 0.876588 14.9572 1.34684 14.995 1.85L15 2C15 2.24493 15.09 2.48134 15.2527 2.66437C15.4155 2.84741 15.6397 2.96434 15.883 2.993L16 3H17C17.7652 2.99996 18.5015 3.29233 19.0583 3.81728C19.615 4.34224 19.9501 5.06011 19.995 5.824L20 6V15C20 15.7652 19.7077 16.5015 19.1827 17.0583C18.6578 17.615 17.9399 17.9501 17.176 17.995L17 18H3C2.23479 18 1.49849 17.7077 0.941739 17.1827C0.384993 16.6578 0.0498925 15.9399 0.00500012 15.176L4.66045e-09 15V6C-4.26217e-05 5.23479 0.292325 4.49849 0.817284 3.94174C1.34224 3.38499 2.06011 3.04989 2.824 3.005L3 3H4C4.26522 3 4.51957 2.89464 4.70711 2.70711C4.89464 2.51957 5 2.26522 5 2C4.99984 1.49542 5.19041 1.00943 5.5335 0.639452C5.87659 0.269471 6.34685 0.0428434 6.85 0.00500021L7 1.00268e-07H13ZM10 7C9.25659 6.99994 8.53964 7.2759 7.98813 7.77439C7.43662 8.27287 7.08984 8.95837 7.015 9.698L7.004 9.85L7 10L7.004 10.15C7.03335 10.7362 7.23402 11.301 7.58117 11.7743C7.92832 12.2476 8.40669 12.6087 8.95702 12.8128C9.50735 13.0169 10.1055 13.0551 10.6773 12.9226C11.2491 12.7901 11.7695 12.4928 12.174 12.0675C12.5786 11.6422 12.8494 11.1076 12.9531 10.5298C13.0568 9.95209 12.9887 9.35663 12.7572 8.81721C12.5258 8.27779 12.1412 7.81811 11.6511 7.4951C11.1611 7.17209 10.587 6.99995 10 7Z" fill="#7EB5F9"/>
</svg>
