<svg width="74" height="74" viewBox="0 0 74 74" fill="none" xmlns="http://www.w3.org/2000/svg">
<circle cx="37" cy="37" r="37" fill="url(#paint0_linear_124_1061)"/>
<path d="M23.703 50.2969C23.2844 50.2969 22.9338 50.155 22.6511 49.8714C22.3684 49.5877 22.2266 49.2371 22.2256 48.8194V34.0451C22.2256 33.6265 22.3674 33.2759 22.6511 32.9932C22.9348 32.7105 23.2854 32.5687 23.703 32.5677H28.874C29.2926 32.5677 29.6438 32.7095 29.9274 32.9932C30.2111 33.2769 30.3524 33.6275 30.3515 34.0451V48.8194C30.3515 49.2381 30.2096 49.5892 29.926 49.8729C29.6423 50.1565 29.2916 50.2979 28.874 50.2969H23.703ZM34.4144 50.2969C33.9958 50.2969 33.6451 50.155 33.3625 49.8714C33.0798 49.5877 32.9379 49.2371 32.937 48.8194V25.1806C32.937 24.762 33.0788 24.4113 33.3625 24.1286C33.6461 23.8459 33.9968 23.7041 34.4144 23.7031H39.5854C40.004 23.7031 40.3551 23.845 40.6388 24.1286C40.9225 24.4123 41.0638 24.7629 41.0628 25.1806V48.8194C41.0628 49.2381 40.921 49.5892 40.6373 49.8729C40.3537 50.1565 40.003 50.2979 39.5854 50.2969H34.4144ZM45.1258 50.2969C44.7072 50.2969 44.3565 50.155 44.0738 49.8714C43.7911 49.5877 43.6493 49.2371 43.6483 48.8194V37C43.6483 36.5814 43.7902 36.2308 44.0738 35.9481C44.3575 35.6654 44.7081 35.5236 45.1258 35.5226H50.2968C50.7154 35.5226 51.0665 35.6644 51.3502 35.9481C51.6338 36.2317 51.7752 36.5824 51.7742 37V48.8194C51.7742 49.2381 51.6324 49.5892 51.3487 49.8729C51.065 50.1565 50.7144 50.2979 50.2968 50.2969H45.1258Z" fill="white"/>
<defs>
<linearGradient id="paint0_linear_124_1061" x1="37" y1="0" x2="37" y2="74" gradientUnits="userSpaceOnUse">
<stop stop-color="#0E1948"/>
<stop offset="1" stop-color="#213BAE"/>
</linearGradient>
</defs>
</svg>
