<svg width="87" height="87" viewBox="0 0 87 87" fill="none" xmlns="http://www.w3.org/2000/svg">
<circle cx="43.5" cy="43.5" r="43.5" fill="white" fill-opacity="0.12"/>
<circle cx="43.5" cy="43.5" r="37.5" fill="white"/>
<path d="M58.25 35.6667H47.75C47.2859 35.6667 46.8408 35.8423 46.5126 36.1548C46.1844 36.4674 46 36.8913 46 37.3333V42.3333H42.5V30.6667C42.5 30.2246 42.3156 29.8007 41.9874 29.4882C41.6592 29.1756 41.2141 29 40.75 29H26.75C26.2859 29 25.8408 29.1756 25.5126 29.4882C25.1844 29.8007 25 30.2246 25 30.6667V57.3333C25 57.7754 25.1844 58.1993 25.5126 58.5118C25.8408 58.8244 26.2859 59 26.75 59H58.25C58.7141 59 59.1592 58.8244 59.4874 58.5118C59.8156 58.1993 60 57.7754 60 57.3333V37.3333C60 36.8913 59.8156 36.4674 59.4874 36.1548C59.1592 35.8423 58.7141 35.6667 58.25 35.6667ZM35.5 34H39V37.3333H35.5V34ZM32 50.6667H28.5V47.3333H32V50.6667ZM32 44H28.5V40.6667H32V44ZM32 37.3333H28.5V34H32V37.3333ZM39 50.6667H35.5V47.3333H39V50.6667ZM39 44H35.5V40.6667H39V44ZM54.75 50.6667H51.25V47.3333H54.75V50.6667ZM54.75 44H51.25V40.6667H54.75V44Z" fill="url(#paint0_linear_8493_1147)"/>
<defs>
<linearGradient id="paint0_linear_8493_1147" x1="42.5" y1="29" x2="42.5" y2="59" gradientUnits="userSpaceOnUse">
<stop stop-color="#0E1948"/>
<stop offset="1" stop-color="#213BAE"/>
</linearGradient>
</defs>
</svg>
