<svg width="74" height="74" viewBox="0 0 74 74" fill="none" xmlns="http://www.w3.org/2000/svg">
<circle cx="37" cy="37" r="37" fill="url(#paint0_linear_124_1060)"/>
<path d="M29.7969 37C32.5507 37 34.7832 34.7675 34.7832 32.0137C34.7832 29.2598 32.5507 27.0273 29.7969 27.0273C27.043 27.0273 24.8105 29.2598 24.8105 32.0137C24.8105 34.7675 27.043 37 29.7969 37Z" fill="white"/>
<path d="M35.4764 39.7702C33.5262 38.7798 31.3738 38.3851 29.7975 38.3851C26.7102 38.3851 20.3789 40.2785 20.3789 44.0639V46.9726H30.7671V45.8597C30.7671 44.5439 31.3211 43.2246 32.2907 42.1248C33.0643 41.2467 34.1474 40.4315 35.4764 39.7702Z" fill="white"/>
<path d="M42.8174 39.2161C39.2113 39.2161 32.0137 41.4434 32.0137 45.8646V49.1888H53.6211V45.8646C53.6211 41.4434 46.4235 39.2161 42.8174 39.2161Z" fill="white"/>
<path d="M42.8171 37C46.1829 37 48.9115 34.2714 48.9115 30.9056C48.9115 27.5397 46.1829 24.8112 42.8171 24.8112C39.4512 24.8112 36.7227 27.5397 36.7227 30.9056C36.7227 34.2714 39.4512 37 42.8171 37Z" fill="white"/>
<defs>
<linearGradient id="paint0_linear_124_1060" x1="37" y1="0" x2="37" y2="74" gradientUnits="userSpaceOnUse">
<stop stop-color="#0E1948"/>
<stop offset="1" stop-color="#213BAE"/>
</linearGradient>
</defs>
</svg>
