<svg width="25" height="25" viewBox="0 0 25 25" fill="none" xmlns="http://www.w3.org/2000/svg">
<g clip-path="url(#clip0_876_1028)">
<path d="M12.429 0C19.8865 0 24.3844 8.25925 20.3371 14.5236L17.0899 19.5512V21.7512C17.0901 22.5206 16.8049 23.2626 16.2894 23.8338C15.7739 24.4049 15.0649 24.7645 14.2996 24.843L13.9826 24.8585H10.8753L10.5584 24.843C9.79302 24.7645 9.084 24.4049 8.56854 23.8338C8.05308 23.2626 7.76782 22.5206 7.76799 21.7512V19.5512L4.52084 14.5236C0.472009 8.25769 4.9714 0 12.429 0ZM10.0985 21.7512C10.0985 21.9572 10.1803 22.1548 10.326 22.3005C10.4717 22.4462 10.6693 22.528 10.8753 22.528H13.9826C14.1887 22.528 14.3862 22.4462 14.5319 22.3005C14.6776 22.1548 14.7595 21.9572 14.7595 21.7512V20.9744H10.0985V21.7512ZM12.429 2.33049C6.81715 2.33049 3.43328 8.54512 6.47845 13.2574L9.95554 18.6439H14.9024L18.3795 13.2574C21.4246 8.54512 18.0408 2.33049 12.429 2.33049ZM11.5511 6.05927C11.6158 5.87825 11.7349 5.72166 11.8921 5.61094C12.0492 5.50023 12.2367 5.4408 12.429 5.4408C12.6212 5.4408 12.8087 5.50023 12.9659 5.61094C13.123 5.72166 13.2421 5.87825 13.3068 6.05927L13.9857 7.97493C14.0321 8.1057 14.1071 8.22446 14.2052 8.32257C14.3033 8.42068 14.422 8.49565 14.5528 8.54201L16.47 9.22252C16.6507 9.28714 16.8069 9.40602 16.9174 9.56288C17.0279 9.71974 17.0872 9.90692 17.0872 10.0988C17.0872 10.2906 17.0279 10.4778 16.9174 10.6347C16.8069 10.7915 16.6507 10.9104 16.47 10.975L14.5528 11.6555C14.422 11.7019 14.3033 11.7769 14.2052 11.875C14.1071 11.9731 14.0321 12.0919 13.9857 12.2226L13.3068 14.1398C13.2421 14.3209 13.123 14.4775 12.9659 14.5882C12.8087 14.6989 12.6212 14.7583 12.429 14.7583C12.2367 14.7583 12.0492 14.6989 11.8921 14.5882C11.7349 14.4775 11.6158 14.3209 11.5511 14.1398L10.8722 12.2226C10.8258 12.0919 10.7509 11.9731 10.6528 11.875C10.5546 11.7769 10.4359 11.7019 10.3051 11.6555L8.38945 10.975C8.2088 10.9104 8.05253 10.7915 7.94205 10.6347C7.83157 10.4778 7.77227 10.2906 7.77227 10.0988C7.77227 9.90692 7.83157 9.71974 7.94205 9.56288C8.05253 9.40602 8.2088 9.28714 8.38945 9.22252L10.3051 8.54201C10.4359 8.49565 10.5546 8.42068 10.6528 8.32257C10.7509 8.22446 10.8258 8.1057 10.8722 7.97493L11.5511 6.05927Z" fill="white"/>
</g>
<defs>
<clipPath id="clip0_876_1028">
<rect width="24.8585" height="24.8585" fill="white"/>
</clipPath>
</defs>
</svg>
