<svg width="48" height="48" viewBox="0 0 48 48" fill="none" xmlns="http://www.w3.org/2000/svg">
<circle cx="23.9919" cy="23.9919" r="23.9919" fill="#B8C034"/>
<g clip-path="url(#clip0_8499_1152)">
<path d="M24.0122 9.94834C25.3755 9.92725 26.7309 9.93975 28.0848 9.92725C28.1669 11.5218 28.7403 13.146 29.9075 14.2733C31.0723 15.4288 32.72 15.9577 34.3231 16.1366V20.3312C32.8208 20.2819 31.3114 19.9694 29.9481 19.3226C29.3544 19.0538 28.8012 18.7077 28.2598 18.3538C28.2528 21.3976 28.2723 24.4374 28.2403 27.4687C28.1591 28.9249 27.6786 30.3741 26.8317 31.5741C25.4692 33.5718 23.1044 34.8741 20.6755 34.9147C19.1856 34.9999 17.6973 34.5937 16.4278 33.8452C14.3239 32.6046 12.8434 30.3335 12.6278 27.896C12.6003 27.3798 12.5962 26.8626 12.6153 26.346C12.8028 24.364 13.7833 22.4679 15.3052 21.178C17.0302 19.6757 19.4466 18.9601 21.7091 19.3835C21.7302 20.9265 21.6684 22.4679 21.6684 24.0108C20.6348 23.6765 19.427 23.7702 18.5239 24.3976C17.8632 24.8329 17.3639 25.4733 17.1028 26.2202C16.8872 26.7483 16.9489 27.3351 16.9614 27.896C17.2091 29.6054 18.8528 31.0421 20.6075 30.8866C21.7708 30.8741 22.8856 30.1991 23.4919 29.2108C23.688 28.8647 23.9075 28.5108 23.9192 28.1038C24.0216 26.2405 23.9809 24.3851 23.9934 22.5218C24.002 18.3226 23.9809 14.1351 24.013 9.94912L24.0122 9.94834Z" fill="#273572"/>
</g>
<defs>
<clipPath id="clip0_8499_1152">
<rect width="25" height="25" fill="white" transform="translate(10.959 9.92725)"/>
</clipPath>
</defs>
</svg>
