<svg width="23" height="21" viewBox="0 0 23 21" fill="none" xmlns="http://www.w3.org/2000/svg">
<path d="M11.1864 0C10.1975 0 9.24905 0.395922 8.54977 1.10067C7.85049 1.80541 7.45763 2.76125 7.45763 3.75791C7.45763 4.75457 7.85049 5.71041 8.54977 6.41516C9.24905 7.1199 10.1975 7.51582 11.1864 7.51582C12.1753 7.51582 13.1238 7.1199 13.8231 6.41516C14.5223 5.71041 14.9152 4.75457 14.9152 3.75791C14.9152 2.76125 14.5223 1.80541 13.8231 1.10067C13.1238 0.395922 12.1753 0 11.1864 0ZM5.03766 10.0161C4.9954 10.2199 4.97427 10.4303 4.97427 10.6474V15.0316C4.97345 15.9411 5.16955 16.8397 5.54888 17.6649C5.92821 18.49 6.48163 19.2218 7.17052 19.8092L6.95798 19.8718C6.32728 20.0423 5.66944 20.086 5.02201 20.0002C4.37459 19.9144 3.75026 19.701 3.18471 19.372C2.61915 19.0431 2.12343 18.605 1.72586 18.083C1.32829 17.5609 1.03667 16.965 0.867637 16.3294L0.0634629 13.3043C0.000124003 13.0659 -0.0160084 12.8173 0.0159868 12.5727C0.047982 12.328 0.127478 12.0921 0.249936 11.8784C0.372394 11.6648 0.535415 11.4775 0.729691 11.3273C0.923967 11.1771 1.14569 11.067 1.38221 11.0032L5.03766 10.0161ZM15.2073 19.8092C15.8962 19.2218 16.4496 18.49 16.8289 17.6649C17.2082 16.8397 17.4043 15.9411 17.4035 15.0316V10.6474C17.4027 10.4303 17.382 10.2199 17.3414 10.0161L20.9956 11.0032C21.473 11.1323 21.88 11.4473 22.1271 11.8788C22.3742 12.3103 22.4411 12.823 22.3131 13.3043L21.5089 16.3294C21.3351 16.983 21.0316 17.5944 20.6168 18.1267C20.2021 18.6589 19.6847 19.101 19.0958 19.4261C18.5069 19.7513 17.8588 19.9529 17.1904 20.0188C16.5221 20.0846 15.8475 20.0133 15.2073 19.8092ZM19.2654 2.50527C18.4413 2.50527 17.651 2.83521 17.0682 3.4225C16.4855 4.00978 16.1581 4.80632 16.1581 5.63687C16.1581 6.46742 16.4855 7.26395 17.0682 7.85124C17.651 8.43853 18.4413 8.76846 19.2654 8.76846C20.0896 8.76846 20.8799 8.43853 21.4626 7.85124C22.0454 7.26395 22.3728 6.46742 22.3728 5.63687C22.3728 4.80632 22.0454 4.00978 21.4626 3.4225C20.8799 2.83521 20.0896 2.50527 19.2654 2.50527ZM3.10739 2.50527C2.28328 2.50527 1.49292 2.83521 0.910186 3.4225C0.327451 4.00978 7.36394e-05 4.80632 7.36394e-05 5.63687C7.36394e-05 6.46742 0.327451 7.26395 0.910186 7.85124C1.49292 8.43853 2.28328 8.76846 3.10739 8.76846C3.9315 8.76846 4.72186 8.43853 5.3046 7.85124C5.88733 7.26395 6.21471 6.46742 6.21471 5.63687C6.21471 4.80632 5.88733 4.00978 5.3046 3.4225C4.72186 2.83521 3.9315 2.50527 3.10739 2.50527ZM8.0791 8.76846C7.58463 8.76846 7.11042 8.96642 6.76077 9.31879C6.41113 9.67117 6.21471 10.1491 6.21471 10.6474V15.0316C6.21471 16.3605 6.73851 17.635 7.67089 18.5746C8.60326 19.5143 9.86784 20.0422 11.1864 20.0422C12.505 20.0422 13.7696 19.5143 14.7019 18.5746C15.6343 17.635 16.1581 16.3605 16.1581 15.0316V10.6474C16.1581 10.1491 15.9617 9.67117 15.6121 9.31879C15.2624 8.96642 14.7882 8.76846 14.2937 8.76846H8.0791Z" fill="white"/>
</svg>
