<svg width="48" height="48" viewBox="0 0 48 48" fill="none" xmlns="http://www.w3.org/2000/svg">
<circle cx="23.9919" cy="23.9919" r="23.9919" fill="#B8C034"/>
<path d="M20.75 27.5522L27.8862 23.4272L20.75 19.3022V27.5522ZM36.645 16.786C36.8237 17.4322 36.9475 18.2985 37.03 19.3985C37.1262 20.4985 37.1675 21.4472 37.1675 22.2722L37.25 23.4272C37.25 26.4385 37.03 28.6522 36.645 30.0685C36.3012 31.306 35.5037 32.1035 34.2663 32.4472C33.62 32.626 32.4375 32.7497 30.6225 32.8322C28.835 32.9285 27.1987 32.9697 25.6863 32.9697L23.5 33.0522C17.7387 33.0522 14.15 32.8322 12.7338 32.4472C11.4963 32.1035 10.6988 31.306 10.355 30.0685C10.1763 29.4222 10.0525 28.556 9.97 27.456C9.87375 26.356 9.8325 25.4072 9.8325 24.5822L9.75 23.4272C9.75 20.416 9.97 18.2022 10.355 16.786C10.6988 15.5485 11.4963 14.751 12.7338 14.4072C13.38 14.2285 14.5625 14.1047 16.3775 14.0222C18.165 13.926 19.8012 13.8847 21.3137 13.8847L23.5 13.8022C29.2612 13.8022 32.85 14.0222 34.2663 14.4072C35.5037 14.751 36.3012 15.5485 36.645 16.786Z" fill="#273572"/>
</svg>
