<svg width="15" height="19" viewBox="0 0 15 19" fill="none" xmlns="http://www.w3.org/2000/svg">
<path d="M9.82106 17.2528C9.85677 17.5594 9.76749 17.8865 9.56216 18.1011C9.47957 18.1958 9.38147 18.271 9.27348 18.3223C9.16548 18.3736 9.04971 18.4 8.93279 18.4C8.81587 18.4 8.7001 18.3736 8.5921 18.3223C8.4841 18.271 8.386 18.1958 8.30341 18.1011L4.72355 14.0025C4.62624 13.8935 4.55224 13.7602 4.50734 13.6131C4.46243 13.4659 4.44782 13.3089 4.46466 13.1542V7.92115L0.188463 1.65578C0.0434903 1.4427 -0.0219243 1.17259 0.00651298 0.904472C0.0349502 0.636351 0.154927 0.392016 0.340228 0.224858C0.509847 0.0817667 0.697321 0 0.893722 0H13.392C13.5884 0 13.7759 0.0817667 13.9455 0.224858C14.1308 0.392016 14.2508 0.636351 14.2792 0.904472C14.3076 1.17259 14.2422 1.4427 14.0973 1.65578L9.82106 7.92115V17.2528ZM2.7149 2.04417L6.25012 7.21591V12.8578L8.03559 14.902V7.20569L11.5708 2.04417H2.7149Z" fill="#02253A"/>
</svg>
