<svg width="22" height="22" viewBox="0 0 22 22" fill="none" xmlns="http://www.w3.org/2000/svg">
<path d="M3.66667 19.25C3.40694 19.25 3.18939 19.162 3.014 18.986C2.83861 18.81 2.75061 18.5924 2.75 18.3333V16.1104C2.75 15.866 2.79583 15.6328 2.8875 15.411C2.97917 15.1892 3.10903 14.9945 3.27708 14.8271L14.85 3.27708C15.0333 3.10903 15.2359 2.97917 15.4578 2.8875C15.6796 2.79583 15.9124 2.75 16.1562 2.75C16.4001 2.75 16.6369 2.79583 16.8667 2.8875C17.0964 2.97917 17.2951 3.11667 17.4625 3.3L18.7229 4.58333C18.9062 4.75139 19.0398 4.95 19.1235 5.17917C19.2072 5.40833 19.2494 5.6375 19.25 5.86667C19.25 6.11111 19.2078 6.34425 19.1235 6.56608C19.0392 6.78792 18.9056 6.99019 18.7229 7.17292L7.17292 18.7229C7.00486 18.891 6.80992 19.0208 6.58808 19.1125C6.36625 19.2042 6.13342 19.25 5.88958 19.25H3.66667ZM16.1333 7.15L17.4167 5.86667L16.1333 4.58333L14.85 5.86667L16.1333 7.15Z" fill="#333333"/>
</svg>
