<svg width="38" height="38" viewBox="0 0 38 38" fill="none" xmlns="http://www.w3.org/2000/svg">
<g clip-path="url(#clip0_147_1142)">
<path fill-rule="evenodd" clip-rule="evenodd" d="M19 2.54919L33.25 10.7764V27.2309L19 35.4582L4.75 27.2309V10.7764L19 2.54919ZM14.2499 17.9064L14.25 29.0593L17.4167 30.8877V19.7347L14.2499 17.9064ZM7.91669 14.25V25.4026L11.0833 27.231V16.0782L7.91669 14.25ZM25.2337 9.80475L15.9135 15.2105L19 16.9925L28.3417 11.5991L25.2337 9.80475ZM19 6.20573L9.65831 11.5992L12.7504 13.3843L22.0707 7.97859L19 6.20573Z" fill="white"/>
<path fill-rule="evenodd" clip-rule="evenodd" d="M19 2.54919L33.25 10.7764V27.2309L19 35.4582L4.75 27.2309V10.7764L19 2.54919ZM14.2499 17.9064L14.25 29.0593L17.4167 30.8877V19.7347L14.2499 17.9064ZM7.91669 14.25V25.4026L11.0833 27.231V16.0782L7.91669 14.25ZM25.2337 9.80475L15.9135 15.2105L19 16.9925L28.3417 11.5991L25.2337 9.80475ZM19 6.20573L9.65831 11.5992L12.7504 13.3843L22.0707 7.97859L19 6.20573Z" fill="white"/>
</g>
<defs>
<clipPath id="clip0_147_1142">
<rect width="38" height="38" fill="white"/>
</clipPath>
</defs>
</svg>
