<svg width="36" height="36" viewBox="0 0 36 36" fill="none" xmlns="http://www.w3.org/2000/svg">
<path d="M10.5264 17.7292C13.2802 17.7292 15.5127 15.4967 15.5127 12.7429C15.5127 9.98899 13.2802 7.75653 10.5264 7.75653C7.77249 7.75653 5.54004 9.98899 5.54004 12.7429C5.54004 15.4967 7.77249 17.7292 10.5264 17.7292Z" fill="white"/>
<path d="M16.2059 20.4993C14.2557 19.509 12.1033 19.1143 10.527 19.1143C7.43965 19.1143 1.1084 21.0077 1.1084 24.7931V27.7018H11.4966V26.5889C11.4966 25.2731 12.0506 23.9538 13.0202 22.854C13.7938 21.9759 14.8769 21.1607 16.2059 20.4993Z" fill="white"/>
<path d="M23.5469 19.9453C19.9408 19.9453 12.7432 22.1725 12.7432 26.5938V29.918H34.3506V26.5938C34.3506 22.1725 27.153 19.9453 23.5469 19.9453Z" fill="white"/>
<path d="M23.5465 17.7291C26.9124 17.7291 29.641 15.0006 29.641 11.6347C29.641 8.2689 26.9124 5.54034 23.5465 5.54034C20.1807 5.54034 17.4521 8.2689 17.4521 11.6347C17.4521 15.0006 20.1807 17.7291 23.5465 17.7291Z" fill="white"/>
</svg>
