<svg width="35" height="30" viewBox="0 0 35 30" fill="none" xmlns="http://www.w3.org/2000/svg">
<path d="M33.25 6.66667H22.75C22.2859 6.66667 21.8408 6.84226 21.5126 7.15482C21.1844 7.46738 21 7.89131 21 8.33333V13.3333H17.5V1.66667C17.5 1.22464 17.3156 0.800716 16.9874 0.488155C16.6592 0.175595 16.2141 0 15.75 0H1.75C1.28587 0 0.840752 0.175595 0.512563 0.488155C0.184374 0.800716 0 1.22464 0 1.66667V28.3333C0 28.7754 0.184374 29.1993 0.512563 29.5118C0.840752 29.8244 1.28587 30 1.75 30H33.25C33.7141 30 34.1592 29.8244 34.4874 29.5118C34.8156 29.1993 35 28.7754 35 28.3333V8.33333C35 7.89131 34.8156 7.46738 34.4874 7.15482C34.1592 6.84226 33.7141 6.66667 33.25 6.66667ZM10.5 5H14V8.33333H10.5V5ZM7 21.6667H3.5V18.3333H7V21.6667ZM7 15H3.5V11.6667H7V15ZM7 8.33333H3.5V5H7V8.33333ZM14 21.6667H10.5V18.3333H14V21.6667ZM14 15H10.5V11.6667H14V15ZM29.75 21.6667H26.25V18.3333H29.75V21.6667ZM29.75 15H26.25V11.6667H29.75V15Z" fill="white"/>
</svg>
